<?xml version="1.0" standalone="no"?>
<!DOCTYPE svg PUBLIC "-//W3C//DTD SVG 20010904//EN"
 "http://www.w3.org/TR/2001/REC-SVG-20010904/DTD/svg10.dtd">
<svg version="1.0" xmlns="http://www.w3.org/2000/svg"
 width="500.000000pt" height="500.000000pt" viewBox="0 0 500.000000 500.000000"
 preserveAspectRatio="xMidYMid meet">
<metadata>
Created by potrace 1.14, written by Peter Selinger 2001-2017
</metadata>
<g transform="translate(0.000000,500.000000) scale(0.100000,-0.100000)"
fill="#000000" stroke="none">
<path d="M2315 4994 c-16 -2 -73 -9 -125 -15 -433 -49 -871 -232 -1240 -517
-109 -85 -327 -303 -412 -412 -286 -370 -453 -770 -520 -1245 -7 -50 -13 -185
-13 -305 0 -352 54 -632 181 -945 127 -310 305 -577 549 -820 399 -400 878
-635 1460 -717 117 -17 493 -17 610 0 475 67 875 234 1245 520 109 85 327 303
412 412 286 370 453 770 520 1245 17 117 17 493 0 610 -67 475 -234 875 -520
1245 -85 109 -303 327 -412 412 -365 282 -765 451 -1230 518 -77 11 -451 22
-505 14z m112 -1645 c121 -38 236 -118 309 -212 26 -34 49 -64 51 -66 2 -3 25
5 50 18 180 87 401 10 496 -174 29 -55 31 -68 32 -155 0 -52 -3 -107 -8 -122
-6 -24 -4 -28 12 -28 38 0 176 -79 229 -131 276 -276 146 -740 -235 -841 -72
-19 -1595 -19 -1673 1 -107 26 -200 78 -276 156 -175 177 -214 426 -101 654
43 89 151 196 238 239 l66 32 7 72 c28 306 260 547 554 576 77 8 195 -1 249
-19z"/>
</g>
</svg>
