<?xml version="1.0" standalone="no"?><svg xmlns="http://www.w3.org/2000/svg" viewBox="0 0 1440 320"><path fill="#f3f4f5" fill-opacity="1" d="M0,64L30,58.7C60,53,120,43,180,69.3C240,96,300,160,360,176C420,192,480,160,540,160C600,160,660,192,720,176C780,160,840,96,900,101.3C960,107,1020,181,1080,186.7C1140,192,1200,128,1260,117.3C1320,107,1380,149,1410,170.7L1440,192L1440,0L1410,0C1380,0,1320,0,1260,0C1200,0,1140,0,1080,0C1020,0,960,0,900,0C840,0,780,0,720,0C660,0,600,0,540,0C480,0,420,0,360,0C300,0,240,0,180,0C120,0,60,0,30,0L0,0Z"></path></svg>