<?xml version="1.0" standalone="no"?><svg xmlns="http://www.w3.org/2000/svg" viewBox="0 0 1440 320"><path fill="#f3f4f5" fill-opacity="1" d="M0,0L30,32C60,64,120,128,180,138.7C240,149,300,107,360,85.3C420,64,480,64,540,90.7C600,117,660,171,720,192C780,213,840,203,900,186.7C960,171,1020,149,1080,138.7C1140,128,1200,128,1260,128C1320,128,1380,128,1410,128L1440,128L1440,0L1410,0C1380,0,1320,0,1260,0C1200,0,1140,0,1080,0C1020,0,960,0,900,0C840,0,780,0,720,0C660,0,600,0,540,0C480,0,420,0,360,0C300,0,240,0,180,0C120,0,60,0,30,0L0,0Z"></path></svg>