<?xml version="1.0" standalone="no"?>
<!DOCTYPE svg PUBLIC "-//W3C//DTD SVG 20010904//EN"
 "http://www.w3.org/TR/2001/REC-SVG-20010904/DTD/svg10.dtd">
<svg version="1.0" xmlns="http://www.w3.org/2000/svg"
 width="512.000000pt" height="512.000000pt" viewBox="0 0 512.000000 512.000000"
 preserveAspectRatio="xMidYMid meet">
<metadata>
Created by potrace 1.14, written by Peter Selinger 2001-2017
</metadata>
<g transform="translate(0.000000,512.000000) scale(0.100000,-0.100000)"
fill="#000000" stroke="none">
<path d="M699 5116 c-2 -2 -22 -7 -44 -10 -38 -6 -92 -20 -125 -33 -8 -4 -17
-7 -20 -8 -3 0 -31 -13 -63 -28 -151 -71 -297 -219 -367 -372 -12 -27 -26 -57
-30 -65 -4 -8 -16 -47 -26 -85 -18 -68 -19 -136 -19 -1935 0 -1026 3 -1885 7
-1910 20 -119 52 -202 123 -310 92 -142 236 -256 391 -311 144 -50 70 -48
2039 -48 1222 0 1857 3 1890 10 342 70 585 312 651 644 11 58 13 387 11 1935
-2 1747 -3 1869 -20 1924 -24 80 -76 204 -93 221 -8 7 -14 17 -14 21 0 12 -72
97 -124 147 -67 63 -181 134 -264 164 -150 55 -52 52 -2048 53 -1018 0 -1853
-2 -1855 -4z"/>
</g>
</svg>
