<?xml version="1.0" standalone="no"?>
<!DOCTYPE svg PUBLIC "-//W3C//DTD SVG 20010904//EN"
 "http://www.w3.org/TR/2001/REC-SVG-20010904/DTD/svg10.dtd">
<svg version="1.0" xmlns="http://www.w3.org/2000/svg"
 width="500.000000pt" height="500.000000pt" viewBox="0 0 500.000000 500.000000"
 preserveAspectRatio="xMidYMid meet">
<metadata>
Created by potrace 1.14, written by Peter Selinger 2001-2017
</metadata>
<g transform="translate(0.000000,500.000000) scale(0.100000,-0.100000)"
fill="#000000" stroke="none">
<path d="M1877 4244 c-1 -2 -27 -6 -57 -9 -139 -16 -324 -79 -451 -156 -346
-208 -558 -530 -613 -934 -3 -16 -5 -72 -5 -122 -1 -61 -5 -93 -12 -93 -24 0
-183 -82 -256 -132 -142 -98 -281 -256 -359 -410 -41 -81 -78 -178 -89 -233
-5 -22 -10 -44 -11 -50 -24 -82 -27 -345 -5 -440 39 -177 97 -310 189 -440
149 -210 360 -361 607 -431 150 -44 124 -43 1745 -43 1527 0 1546 0 1640 20
257 57 464 192 614 402 128 179 187 375 181 602 -7 265 -108 500 -295 686
-114 113 -276 209 -419 248 -41 11 -76 22 -78 25 -3 2 0 13 6 24 5 10 12 30
15 43 2 13 9 43 14 67 10 44 8 222 -3 277 -46 228 -196 423 -410 532 -133 67
-344 89 -505 53 -57 -13 -180 -66 -214 -93 -19 -14 -23 -10 -79 72 -73 105
-227 260 -322 323 -139 91 -340 176 -465 194 -19 3 -64 10 -100 15 -55 9 -255
10 -263 3z"/>
</g>
</svg>
