<svg xmlns="http://www.w3.org/2000/svg" xmlns:xlink="http://www.w3.org/1999/xlink" id="visual" width="960" height="540" version="1.1" viewBox="0 0 960 540"><path fill="#06f" d="M911 540L911 531.8C911 523.7 911 507.3 904.7 491C898.3 474.7 885.7 458.3 879.3 442C873 425.7 873 409.3 877.7 393C882.3 376.7 891.7 360.3 898 344C904.3 327.7 907.7 311.3 906.2 294.8C904.7 278.3 898.3 261.7 893.5 245.2C888.7 228.7 885.3 212.3 888.5 196C891.7 179.7 901.3 163.3 896.5 147C891.7 130.7 872.3 114.3 872.3 98C872.3 81.7 891.7 65.3 896.5 49C901.3 32.7 891.7 16.3 886.8 8.2L882 0L960 0L960 8.2C960 16.3 960 32.7 960 49C960 65.3 960 81.7 960 98C960 114.3 960 130.7 960 147C960 163.3 960 179.7 960 196C960 212.3 960 228.7 960 245.2C960 261.7 960 278.3 960 294.8C960 311.3 960 327.7 960 344C960 360.3 960 376.7 960 393C960 409.3 960 425.7 960 442C960 458.3 960 474.7 960 491C960 507.3 960 523.7 960 531.8L960 540Z"/><path fill="#7286ff" d="M873 540L876.2 531.8C879.3 523.7 885.7 507.3 877.7 491C869.7 474.7 847.3 458.3 840.8 442C834.3 425.7 843.7 409.3 848.3 393C853 376.7 853 360.3 856.3 344C859.7 327.7 866.3 311.3 864.8 294.8C863.3 278.3 853.7 261.7 848.8 245.2C844 228.7 844 212.3 852 196C860 179.7 876 163.3 874.3 147C872.7 130.7 853.3 114.3 853.3 98C853.3 81.7 872.7 65.3 875.8 49C879 32.7 866 16.3 859.5 8.2L853 0L883 0L887.8 8.2C892.7 16.3 902.3 32.7 897.5 49C892.7 65.3 873.3 81.7 873.3 98C873.3 114.3 892.7 130.7 897.5 147C902.3 163.3 892.7 179.7 889.5 196C886.3 212.3 889.7 228.7 894.5 245.2C899.3 261.7 905.7 278.3 907.2 294.8C908.7 311.3 905.3 327.7 899 344C892.7 360.3 883.3 376.7 878.7 393C874 409.3 874 425.7 880.3 442C886.7 458.3 899.3 474.7 905.7 491C912 507.3 912 523.7 912 531.8L912 540Z"/><path fill="#a3a8ff" d="M825 540L823.3 531.8C821.7 523.7 818.3 507.3 810.3 491C802.3 474.7 789.7 458.3 788 442C786.3 425.7 795.7 409.3 794 393C792.3 376.7 779.7 360.3 783 344C786.3 327.7 805.7 311.3 810.5 294.8C815.3 278.3 805.7 261.7 799.2 245.2C792.7 228.7 789.3 212.3 798.8 196C808.3 179.7 830.7 163.3 829.2 147C827.7 130.7 802.3 114.3 802.3 98C802.3 81.7 827.7 65.3 826 49C824.3 32.7 795.7 16.3 781.3 8.2L767 0L854 0L860.5 8.2C867 16.3 880 32.7 876.8 49C873.7 65.3 854.3 81.7 854.3 98C854.3 114.3 873.7 130.7 875.3 147C877 163.3 861 179.7 853 196C845 212.3 845 228.7 849.8 245.2C854.7 261.7 864.3 278.3 865.8 294.8C867.3 311.3 860.7 327.7 857.3 344C854 360.3 854 376.7 849.3 393C844.7 409.3 835.3 425.7 841.8 442C848.3 458.3 870.7 474.7 878.7 491C886.7 507.3 880.3 523.7 877.2 531.8L874 540Z"/><path fill="#cccbff" d="M729 540L729 531.8C729 523.7 729 507.3 721 491C713 474.7 697 458.3 695.3 442C693.7 425.7 706.3 409.3 709.5 393C712.7 376.7 706.3 360.3 703.2 344C700 327.7 700 311.3 701.5 294.8C703 278.3 706 261.7 712.3 245.2C718.7 228.7 728.3 212.3 739.7 196C751 179.7 764 163.3 751.2 147C738.3 130.7 699.7 114.3 701.2 98C702.7 81.7 744.3 65.3 746 49C747.7 32.7 709.3 16.3 690.2 8.2L671 0L768 0L782.3 8.2C796.7 16.3 825.3 32.7 827 49C828.7 65.3 803.3 81.7 803.3 98C803.3 114.3 828.7 130.7 830.2 147C831.7 163.3 809.3 179.7 799.8 196C790.3 212.3 793.7 228.7 800.2 245.2C806.7 261.7 816.3 278.3 811.5 294.8C806.7 311.3 787.3 327.7 784 344C780.7 360.3 793.3 376.7 795 393C796.7 409.3 787.3 425.7 789 442C790.7 458.3 803.3 474.7 811.3 491C819.3 507.3 822.7 523.7 824.3 531.8L826 540Z"/><path fill="#f1f0ff" d="M700 540L695.2 531.8C690.3 523.7 680.7 507.3 669.5 491C658.3 474.7 645.7 458.3 647.3 442C649 425.7 665 409.3 668.2 393C671.3 376.7 661.7 360.3 656.8 344C652 327.7 652 311.3 656.8 294.8C661.7 278.3 671.3 261.7 676.2 245.2C681 228.7 681 212.3 692.2 196C703.3 179.7 725.7 163.3 716 147C706.3 130.7 664.7 114.3 664.7 98C664.7 81.7 706.3 65.3 709.5 49C712.7 32.7 677.3 16.3 659.7 8.2L642 0L672 0L691.2 8.2C710.3 16.3 748.7 32.7 747 49C745.3 65.3 703.7 81.7 702.2 98C700.7 114.3 739.3 130.7 752.2 147C765 163.3 752 179.7 740.7 196C729.3 212.3 719.7 228.7 713.3 245.2C707 261.7 704 278.3 702.5 294.8C701 311.3 701 327.7 704.2 344C707.3 360.3 713.7 376.7 710.5 393C707.3 409.3 694.7 425.7 696.3 442C698 458.3 714 474.7 722 491C730 507.3 730 523.7 730 531.8L730 540Z"/><path fill="#fff" d="M537 540L540.2 531.8C543.3 523.7 549.7 507.3 533.7 491C517.7 474.7 479.3 458.3 466.5 442C453.7 425.7 466.3 409.3 467.8 393C469.3 376.7 459.7 360.3 458 344C456.3 327.7 462.7 311.3 465.8 294.8C469 278.3 469 261.7 477 245.2C485 228.7 501 212.3 504.3 196C507.7 179.7 498.3 163.3 485.7 147C473 130.7 457 114.3 473 98C489 81.7 537 65.3 549.7 49C562.3 32.7 539.7 16.3 528.3 8.2L517 0L643 0L660.7 8.2C678.3 16.3 713.7 32.7 710.5 49C707.3 65.3 665.7 81.7 665.7 98C665.7 114.3 707.3 130.7 717 147C726.7 163.3 704.3 179.7 693.2 196C682 212.3 682 228.7 677.2 245.2C672.3 261.7 662.7 278.3 657.8 294.8C653 311.3 653 327.7 657.8 344C662.7 360.3 672.3 376.7 669.2 393C666 409.3 650 425.7 648.3 442C646.7 458.3 659.3 474.7 670.5 491C681.7 507.3 691.3 523.7 696.2 531.8L701 540Z"/><path fill="#fff" d="M268 540L271.2 531.8C274.3 523.7 280.7 507.3 280.7 491C280.7 474.7 274.3 458.3 266.3 442C258.3 425.7 248.7 409.3 247 393C245.3 376.7 251.7 360.3 256.5 344C261.3 327.7 264.7 311.3 269.5 294.8C274.3 278.3 280.7 261.7 288.7 245.2C296.7 228.7 306.3 212.3 303.2 196C300 179.7 284 163.3 282.3 147C280.7 130.7 293.3 114.3 299.7 98C306 81.7 306 65.3 296.5 49C287 32.7 268 16.3 258.5 8.2L249 0L518 0L529.3 8.2C540.7 16.3 563.3 32.7 550.7 49C538 65.3 490 81.7 474 98C458 114.3 474 130.7 486.7 147C499.3 163.3 508.7 179.7 505.3 196C502 212.3 486 228.7 478 245.2C470 261.7 470 278.3 466.8 294.8C463.7 311.3 457.3 327.7 459 344C460.7 360.3 470.3 376.7 468.8 393C467.3 409.3 454.7 425.7 467.5 442C480.3 458.3 518.7 474.7 534.7 491C550.7 507.3 544.3 523.7 541.2 531.8L538 540Z"/><path fill="#f1f0ff" d="M229 540L229 531.8C229 523.7 229 507.3 225.8 491C222.7 474.7 216.3 458.3 206.8 442C197.3 425.7 184.7 409.3 184.7 393C184.7 376.7 197.3 360.3 206.8 344C216.3 327.7 222.7 311.3 230.7 294.8C238.7 278.3 248.3 261.7 254.8 245.2C261.3 228.7 264.7 212.3 255.2 196C245.7 179.7 223.3 163.3 218.5 147C213.7 130.7 226.3 114.3 235.8 98C245.3 81.7 251.7 65.3 243.7 49C235.7 32.7 213.3 16.3 202.2 8.2L191 0L250 0L259.5 8.2C269 16.3 288 32.7 297.5 49C307 65.3 307 81.7 300.7 98C294.3 114.3 281.7 130.7 283.3 147C285 163.3 301 179.7 304.2 196C307.3 212.3 297.7 228.7 289.7 245.2C281.7 261.7 275.3 278.3 270.5 294.8C265.7 311.3 262.3 327.7 257.5 344C252.7 360.3 246.3 376.7 248 393C249.7 409.3 259.3 425.7 267.3 442C275.3 458.3 281.7 474.7 281.7 491C281.7 507.3 275.3 523.7 272.2 531.8L269 540Z"/><path fill="#cccbff" d="M133 540L133 531.8C133 523.7 133 507.3 133 491C133 474.7 133 458.3 128.3 442C123.7 425.7 114.3 409.3 112.8 393C111.3 376.7 117.7 360.3 117.7 344C117.7 327.7 111.3 311.3 114.5 294.8C117.7 278.3 130.3 261.7 135 245.2C139.7 228.7 136.3 212.3 130 196C123.7 179.7 114.3 163.3 111.2 147C108 130.7 111 114.3 112.5 98C114 81.7 114 65.3 115.7 49C117.3 32.7 120.7 16.3 122.3 8.2L124 0L192 0L203.2 8.2C214.3 16.3 236.7 32.7 244.7 49C252.7 65.3 246.3 81.7 236.8 98C227.3 114.3 214.7 130.7 219.5 147C224.3 163.3 246.7 179.7 256.2 196C265.7 212.3 262.3 228.7 255.8 245.2C249.3 261.7 239.7 278.3 231.7 294.8C223.7 311.3 217.3 327.7 207.8 344C198.3 360.3 185.7 376.7 185.7 393C185.7 409.3 198.3 425.7 207.8 442C217.3 458.3 223.7 474.7 226.8 491C230 507.3 230 523.7 230 531.8L230 540Z"/><path fill="#a3a8ff" d="M85 540L85 531.8C85 523.7 85 507.3 86.7 491C88.3 474.7 91.7 458.3 88.5 442C85.3 425.7 75.7 409.3 72.5 393C69.3 376.7 72.7 360.3 72.7 344C72.7 327.7 69.3 311.3 74.2 294.8C79 278.3 92 261.7 100 245.2C108 228.7 111 212.3 103 196C95 179.7 76 163.3 72.8 147C69.7 130.7 82.3 114.3 88.7 98C95 81.7 95 65.3 93.3 49C91.7 32.7 88.3 16.3 86.7 8.2L85 0L125 0L123.3 8.2C121.7 16.3 118.3 32.7 116.7 49C115 65.3 115 81.7 113.5 98C112 114.3 109 130.7 112.2 147C115.3 163.3 124.7 179.7 131 196C137.3 212.3 140.7 228.7 136 245.2C131.3 261.7 118.7 278.3 115.5 294.8C112.3 311.3 118.7 327.7 118.7 344C118.7 360.3 112.3 376.7 113.8 393C115.3 409.3 124.7 425.7 129.3 442C134 458.3 134 474.7 134 491C134 507.3 134 523.7 134 531.8L134 540Z"/><path fill="#7286ff" d="M37 540L37 531.8C37 523.7 37 507.3 37 491C37 474.7 37 458.3 35.5 442C34 425.7 31 409.3 32.7 393C34.3 376.7 40.7 360.3 40.7 344C40.7 327.7 34.3 311.3 34.3 294.8C34.3 278.3 40.7 261.7 45.5 245.2C50.3 228.7 53.7 212.3 50.5 196C47.3 179.7 37.7 163.3 34.3 147C31 130.7 34 114.3 37.2 98C40.3 81.7 43.7 65.3 47 49C50.3 32.7 53.7 16.3 55.3 8.2L57 0L86 0L87.7 8.2C89.3 16.3 92.7 32.7 94.3 49C96 65.3 96 81.7 89.7 98C83.3 114.3 70.7 130.7 73.8 147C77 163.3 96 179.7 104 196C112 212.3 109 228.7 101 245.2C93 261.7 80 278.3 75.2 294.8C70.3 311.3 73.7 327.7 73.7 344C73.7 360.3 70.3 376.7 73.5 393C76.7 409.3 86.3 425.7 89.5 442C92.7 458.3 89.3 474.7 87.7 491C86 507.3 86 523.7 86 531.8L86 540Z"/><path fill="#06f" d="M0 540L0 531.8C0 523.7 0 507.3 0 491C0 474.7 0 458.3 0 442C0 425.7 0 409.3 0 393C0 376.7 0 360.3 0 344C0 327.7 0 311.3 0 294.8C0 278.3 0 261.7 0 245.2C0 228.7 0 212.3 0 196C0 179.7 0 163.3 0 147C0 130.7 0 114.3 0 98C0 81.7 0 65.3 0 49C0 32.7 0 16.3 0 8.2L0 0L58 0L56.3 8.2C54.7 16.3 51.3 32.7 48 49C44.7 65.3 41.3 81.7 38.2 98C35 114.3 32 130.7 35.3 147C38.7 163.3 48.3 179.7 51.5 196C54.7 212.3 51.3 228.7 46.5 245.2C41.7 261.7 35.3 278.3 35.3 294.8C35.3 311.3 41.7 327.7 41.7 344C41.7 360.3 35.3 376.7 33.7 393C32 409.3 35 425.7 36.5 442C38 458.3 38 474.7 38 491C38 507.3 38 523.7 38 531.8L38 540Z"/></svg>
